<mxfile host="app.diagrams.net" agent="Mozilla/5.0 (Macintosh; Intel Mac OS X 10_15_7) AppleWebKit/537.36 (KHTML, like Gecko) Chrome/130.0.0.0 Safari/537.36" version="24.8.3">
  <diagram name="第 1 页" id="8Rc7tYSruqB4j2HT2wGH">
    <mxGraphModel dx="462" dy="510" grid="1" gridSize="10" guides="1" tooltips="1" connect="1" arrows="1" fold="1" page="1" pageScale="1" pageWidth="827" pageHeight="1169" math="0" shadow="0">
      <root>
        <mxCell id="0" />
        <mxCell id="1" parent="0" />
        <mxCell id="ssDMWkVqa4e1hbEo7RY9-23" value="" style="edgeStyle=orthogonalEdgeStyle;rounded=0;orthogonalLoop=1;jettySize=auto;html=1;" edge="1" parent="1" source="ssDMWkVqa4e1hbEo7RY9-1" target="ssDMWkVqa4e1hbEo7RY9-2">
          <mxGeometry relative="1" as="geometry" />
        </mxCell>
        <mxCell id="ssDMWkVqa4e1hbEo7RY9-1" value="开始程序" style="rounded=1;whiteSpace=wrap;html=1;" vertex="1" parent="1">
          <mxGeometry x="180" y="30" width="120" height="60" as="geometry" />
        </mxCell>
        <mxCell id="ssDMWkVqa4e1hbEo7RY9-22" value="" style="edgeStyle=orthogonalEdgeStyle;rounded=0;orthogonalLoop=1;jettySize=auto;html=1;" edge="1" parent="1" source="ssDMWkVqa4e1hbEo7RY9-2" target="ssDMWkVqa4e1hbEo7RY9-3">
          <mxGeometry relative="1" as="geometry" />
        </mxCell>
        <mxCell id="ssDMWkVqa4e1hbEo7RY9-2" value="初始化numList切片" style="rounded=0;whiteSpace=wrap;html=1;" vertex="1" parent="1">
          <mxGeometry x="180" y="140" width="120" height="60" as="geometry" />
        </mxCell>
        <mxCell id="ssDMWkVqa4e1hbEo7RY9-24" value="" style="edgeStyle=orthogonalEdgeStyle;rounded=0;orthogonalLoop=1;jettySize=auto;html=1;" edge="1" parent="1" source="ssDMWkVqa4e1hbEo7RY9-3" target="ssDMWkVqa4e1hbEo7RY9-4">
          <mxGeometry relative="1" as="geometry" />
        </mxCell>
        <mxCell id="ssDMWkVqa4e1hbEo7RY9-3" value="提示输入三条边长（空格分隔，输入0 0 0 作为结束信号）" style="rounded=0;whiteSpace=wrap;html=1;" vertex="1" parent="1">
          <mxGeometry x="180" y="250" width="120" height="60" as="geometry" />
        </mxCell>
        <mxCell id="ssDMWkVqa4e1hbEo7RY9-6" value="" style="edgeStyle=orthogonalEdgeStyle;rounded=0;orthogonalLoop=1;jettySize=auto;html=1;" edge="1" parent="1" source="ssDMWkVqa4e1hbEo7RY9-4" target="ssDMWkVqa4e1hbEo7RY9-5">
          <mxGeometry relative="1" as="geometry" />
        </mxCell>
        <mxCell id="ssDMWkVqa4e1hbEo7RY9-4" value="输入循环" style="rounded=0;whiteSpace=wrap;html=1;" vertex="1" parent="1">
          <mxGeometry x="180" y="350" width="120" height="60" as="geometry" />
        </mxCell>
        <mxCell id="ssDMWkVqa4e1hbEo7RY9-25" value="" style="edgeStyle=orthogonalEdgeStyle;rounded=0;orthogonalLoop=1;jettySize=auto;html=1;" edge="1" parent="1" source="ssDMWkVqa4e1hbEo7RY9-5" target="ssDMWkVqa4e1hbEo7RY9-7">
          <mxGeometry relative="1" as="geometry" />
        </mxCell>
        <mxCell id="ssDMWkVqa4e1hbEo7RY9-5" value="读取解析用户输入" style="whiteSpace=wrap;html=1;rounded=0;" vertex="1" parent="1">
          <mxGeometry x="180" y="490" width="120" height="60" as="geometry" />
        </mxCell>
        <mxCell id="ssDMWkVqa4e1hbEo7RY9-9" style="edgeStyle=orthogonalEdgeStyle;rounded=0;orthogonalLoop=1;jettySize=auto;html=1;exitX=1;exitY=0.5;exitDx=0;exitDy=0;entryX=0.5;entryY=1;entryDx=0;entryDy=0;" edge="1" parent="1" source="ssDMWkVqa4e1hbEo7RY9-7" target="ssDMWkVqa4e1hbEo7RY9-8">
          <mxGeometry relative="1" as="geometry" />
        </mxCell>
        <mxCell id="ssDMWkVqa4e1hbEo7RY9-11" value="yes" style="edgeLabel;html=1;align=center;verticalAlign=middle;resizable=0;points=[];" vertex="1" connectable="0" parent="ssDMWkVqa4e1hbEo7RY9-9">
          <mxGeometry x="-0.3711" y="2" relative="1" as="geometry">
            <mxPoint as="offset" />
          </mxGeometry>
        </mxCell>
        <mxCell id="ssDMWkVqa4e1hbEo7RY9-13" value="" style="edgeStyle=orthogonalEdgeStyle;rounded=0;orthogonalLoop=1;jettySize=auto;html=1;" edge="1" parent="1" source="ssDMWkVqa4e1hbEo7RY9-7">
          <mxGeometry relative="1" as="geometry">
            <mxPoint x="240" y="730" as="targetPoint" />
          </mxGeometry>
        </mxCell>
        <mxCell id="ssDMWkVqa4e1hbEo7RY9-14" value="No" style="edgeLabel;html=1;align=center;verticalAlign=middle;resizable=0;points=[];" vertex="1" connectable="0" parent="ssDMWkVqa4e1hbEo7RY9-13">
          <mxGeometry x="-0.56" relative="1" as="geometry">
            <mxPoint as="offset" />
          </mxGeometry>
        </mxCell>
        <mxCell id="ssDMWkVqa4e1hbEo7RY9-7" value="是否为无效输入" style="rhombus;whiteSpace=wrap;html=1;" vertex="1" parent="1">
          <mxGeometry x="200" y="600" width="80" height="80" as="geometry" />
        </mxCell>
        <mxCell id="ssDMWkVqa4e1hbEo7RY9-10" style="edgeStyle=orthogonalEdgeStyle;rounded=0;orthogonalLoop=1;jettySize=auto;html=1;exitX=0.5;exitY=0;exitDx=0;exitDy=0;entryX=1;entryY=0.5;entryDx=0;entryDy=0;" edge="1" parent="1" source="ssDMWkVqa4e1hbEo7RY9-8" target="ssDMWkVqa4e1hbEo7RY9-5">
          <mxGeometry relative="1" as="geometry" />
        </mxCell>
        <mxCell id="ssDMWkVqa4e1hbEo7RY9-8" value="重新输入" style="rounded=0;whiteSpace=wrap;html=1;" vertex="1" parent="1">
          <mxGeometry x="354" y="555" width="120" height="60" as="geometry" />
        </mxCell>
        <mxCell id="ssDMWkVqa4e1hbEo7RY9-16" style="edgeStyle=orthogonalEdgeStyle;rounded=0;orthogonalLoop=1;jettySize=auto;html=1;entryX=0.75;entryY=1;entryDx=0;entryDy=0;" edge="1" parent="1" source="ssDMWkVqa4e1hbEo7RY9-15" target="ssDMWkVqa4e1hbEo7RY9-8">
          <mxGeometry relative="1" as="geometry" />
        </mxCell>
        <mxCell id="ssDMWkVqa4e1hbEo7RY9-17" value="NO" style="edgeLabel;html=1;align=center;verticalAlign=middle;resizable=0;points=[];" vertex="1" connectable="0" parent="ssDMWkVqa4e1hbEo7RY9-16">
          <mxGeometry x="-0.7743" y="2" relative="1" as="geometry">
            <mxPoint as="offset" />
          </mxGeometry>
        </mxCell>
        <mxCell id="ssDMWkVqa4e1hbEo7RY9-19" value="" style="edgeStyle=orthogonalEdgeStyle;rounded=0;orthogonalLoop=1;jettySize=auto;html=1;" edge="1" parent="1" source="ssDMWkVqa4e1hbEo7RY9-15" target="ssDMWkVqa4e1hbEo7RY9-18">
          <mxGeometry relative="1" as="geometry" />
        </mxCell>
        <mxCell id="ssDMWkVqa4e1hbEo7RY9-15" value="判断是否为结束信号" style="rhombus;whiteSpace=wrap;html=1;" vertex="1" parent="1">
          <mxGeometry x="200" y="730" width="80" height="80" as="geometry" />
        </mxCell>
        <mxCell id="ssDMWkVqa4e1hbEo7RY9-26" value="" style="edgeStyle=orthogonalEdgeStyle;rounded=0;orthogonalLoop=1;jettySize=auto;html=1;" edge="1" parent="1" source="ssDMWkVqa4e1hbEo7RY9-18" target="ssDMWkVqa4e1hbEo7RY9-20">
          <mxGeometry relative="1" as="geometry" />
        </mxCell>
        <mxCell id="ssDMWkVqa4e1hbEo7RY9-18" value="添加到numlist中" style="whiteSpace=wrap;html=1;" vertex="1" parent="1">
          <mxGeometry x="180" y="860" width="120" height="60" as="geometry" />
        </mxCell>
        <mxCell id="ssDMWkVqa4e1hbEo7RY9-27" value="" style="edgeStyle=orthogonalEdgeStyle;rounded=0;orthogonalLoop=1;jettySize=auto;html=1;" edge="1" parent="1" source="ssDMWkVqa4e1hbEo7RY9-20" target="ssDMWkVqa4e1hbEo7RY9-21">
          <mxGeometry relative="1" as="geometry" />
        </mxCell>
        <mxCell id="ssDMWkVqa4e1hbEo7RY9-20" value="循环判断三角形类型&lt;div&gt;并输出结果&lt;/div&gt;" style="rounded=0;whiteSpace=wrap;html=1;" vertex="1" parent="1">
          <mxGeometry x="180" y="960" width="120" height="60" as="geometry" />
        </mxCell>
        <mxCell id="ssDMWkVqa4e1hbEo7RY9-21" value="结束" style="rounded=0;whiteSpace=wrap;html=1;" vertex="1" parent="1">
          <mxGeometry x="180" y="1070" width="120" height="60" as="geometry" />
        </mxCell>
      </root>
    </mxGraphModel>
  </diagram>
</mxfile>
